<svg width="92" height="25" viewBox="0 0 92 25" fill="none" xmlns="http://www.w3.org/2000/svg">
<path d="M8.57774 20.813C6.95229 20.813 5.48357 20.4552 4.17158 19.7386C2.87516 19.023 1.85173 18.0344 1.10128 16.7728C0.367439 15.4968 0 14.0718 0 12.5C0 10.9282 0.367439 9.51151 1.10128 8.24993C1.85173 6.97387 2.88243 5.97701 4.19545 5.26142C5.50848 4.54584 6.9772 4.18701 8.60161 4.18701C9.82018 4.18701 10.9453 4.38969 11.9771 4.79402C13.0088 5.19835 13.8838 5.78984 14.6021 6.56851L13.5008 7.66567C12.2189 6.3741 10.6018 5.72883 8.64832 5.72883C7.3519 5.72883 6.17174 6.02458 5.10886 6.61607C4.04702 7.20757 3.21146 8.01726 2.60114 9.0441C2.00742 10.072 1.71057 11.2229 1.71057 12.5C1.71057 13.7761 2.00742 14.928 2.60114 15.9559C3.21042 16.9838 4.04599 17.7924 5.10886 18.3839C6.17174 18.9754 7.35087 19.2712 8.64832 19.2712C10.6173 19.2712 12.2345 18.6176 13.4998 17.3095L14.601 18.4067C13.8828 19.1854 12.9995 19.7841 11.9522 20.205C10.9215 20.6103 9.79735 20.813 8.57774 20.813Z" fill="#FFEA2F"/>
<path d="M20.0338 4.32764H18.2993V20.6724H20.0338V4.32764Z" fill="#FFEA2F"/>
<path d="M39.0825 4.32764V20.6724H37.6522L27.1054 7.40921V20.6724H25.371V4.32764H26.8013L37.3709 17.5898V4.32764H39.0825Z" fill="#FFEA2F"/>
<path d="M56.0387 19.1781V20.6724H44.4373V4.32764H55.6868V5.82189H46.1718V11.6365H54.6561V13.107H46.1718V19.1781H56.0387Z" fill="#FFEA2F"/>
<path d="M74.0806 25H79.1718L69.7948 12.0429L78.521 0H73.8896L67.4231 9.25505L60.8341 0H55.8456L64.6569 12.2756L55.365 25H60.4044L67.1812 15.1162L74.0806 25Z" fill="#FFEA2F"/>
<path d="M84.6647 13.0832C85.8054 13.0832 86.6721 12.8423 87.2658 12.3594C87.8596 11.8609 88.1564 11.1609 88.1564 10.2581C88.1564 9.33984 87.8596 8.63873 87.2658 8.15685C86.6721 7.65842 85.8044 7.40921 84.6647 7.40921H81.5705V13.0832H84.6647ZM84.8754 4.32764C86.3286 4.32764 87.5866 4.56858 88.6484 5.0515C89.7269 5.53441 90.5552 6.21898 91.1333 7.10622C91.7114 7.99346 92 9.04409 92 10.2581C92 11.4566 91.7114 12.5072 91.1333 13.41C90.5552 14.2972 89.7269 14.9818 88.6484 15.4647C87.5855 15.9321 86.3286 16.1648 84.8754 16.1648H81.5705V20.6713H77.7737V4.32764H84.8754Z" fill="#FFEA2F"/>
</svg>
